<?xml version="1.0" encoding="utf-8" standalone="no"?>
<!DOCTYPE svg PUBLIC "-//W3C//DTD SVG 1.1//EN"
  "http://www.w3.org/Graphics/SVG/1.1/DTD/svg11.dtd">
<svg xmlns:xlink="http://www.w3.org/1999/xlink" width="460.8pt" height="345.6pt" viewBox="0 0 460.8 345.6" xmlns="http://www.w3.org/2000/svg" version="1.1">
 <metadata>
  <rdf:RDF xmlns:dc="http://purl.org/dc/elements/1.1/" xmlns:cc="http://creativecommons.org/ns#" xmlns:rdf="http://www.w3.org/1999/02/22-rdf-syntax-ns#">
   <cc:Work>
    <dc:type rdf:resource="http://purl.org/dc/dcmitype/StillImage"/>
    <dc:date>2026-04-08T15:56:35.088402</dc:date>
    <dc:format>image/svg+xml</dc:format>
    <dc:creator>
     <cc:Agent>
      <dc:title>Matplotlib v3.7.5, https://matplotlib.org/</dc:title>
     </cc:Agent>
    </dc:creator>
   </cc:Work>
  </rdf:RDF>
 </metadata>
 <defs>
  <style type="text/css">*{stroke-linejoin: round; stroke-linecap: butt}</style>
 </defs>
 <g id="figure_1">
  <g id="patch_1">
   <path d="M 0 345.6 
L 460.8 345.6 
L 460.8 0 
L 0 0 
L 0 345.6 
z
" style="fill: none"/>
  </g>
  <g id="axes_1">
   <g id="patch_2">
    <path d="M 57.6 307.584 
L 414.72 307.584 
L 414.72 41.472 
L 57.6 41.472 
L 57.6 307.584 
z
" style="fill: none"/>
   </g>
   <g id="matplotlib.axis_1">
    <g id="xtick_1">
     <g id="line2d_1">
      <defs>
       <path id="m7cb490dab1" d="M 0 0 
L 0 3.5 
" style="stroke: #000000; stroke-width: 0.8"/>
      </defs>
      <g>
       <use xlink:href="#m7cb490dab1" x="73.832727" y="307.584" style="stroke: #000000; stroke-width: 0.8"/>
      </g>
     </g>
     <g id="text_1">
      <!-- 0.0 -->
      <g transform="translate(66.882727 321.741812) scale(0.1 -0.1)">
       <defs>
        <path id="ArialMT-30" d="M 266 2259 
Q 266 3072 433 3567 
Q 600 4063 929 4331 
Q 1259 4600 1759 4600 
Q 2128 4600 2406 4451 
Q 2684 4303 2865 4023 
Q 3047 3744 3150 3342 
Q 3253 2941 3253 2259 
Q 3253 1453 3087 958 
Q 2922 463 2592 192 
Q 2263 -78 1759 -78 
Q 1097 -78 719 397 
Q 266 969 266 2259 
z
M 844 2259 
Q 844 1131 1108 757 
Q 1372 384 1759 384 
Q 2147 384 2411 759 
Q 2675 1134 2675 2259 
Q 2675 3391 2411 3762 
Q 2147 4134 1753 4134 
Q 1366 4134 1134 3806 
Q 844 3388 844 2259 
z
" transform="scale(0.015625)"/>
        <path id="ArialMT-2e" d="M 581 0 
L 581 641 
L 1222 641 
L 1222 0 
L 581 0 
z
" transform="scale(0.015625)"/>
       </defs>
       <use xlink:href="#ArialMT-30"/>
       <use xlink:href="#ArialMT-2e" x="55.615234"/>
       <use xlink:href="#ArialMT-30" x="83.398438"/>
      </g>
     </g>
    </g>
    <g id="xtick_2">
     <g id="line2d_2">
      <g>
       <use xlink:href="#m7cb490dab1" x="138.763636" y="307.584" style="stroke: #000000; stroke-width: 0.8"/>
      </g>
     </g>
     <g id="text_2">
      <!-- 0.2 -->
      <g transform="translate(131.813636 321.741812) scale(0.1 -0.1)">
       <defs>
        <path id="ArialMT-32" d="M 3222 541 
L 3222 0 
L 194 0 
Q 188 203 259 391 
Q 375 700 629 1000 
Q 884 1300 1366 1694 
Q 2113 2306 2375 2664 
Q 2638 3022 2638 3341 
Q 2638 3675 2398 3904 
Q 2159 4134 1775 4134 
Q 1369 4134 1125 3890 
Q 881 3647 878 3216 
L 300 3275 
Q 359 3922 746 4261 
Q 1134 4600 1788 4600 
Q 2447 4600 2831 4234 
Q 3216 3869 3216 3328 
Q 3216 3053 3103 2787 
Q 2991 2522 2730 2228 
Q 2469 1934 1863 1422 
Q 1356 997 1212 845 
Q 1069 694 975 541 
L 3222 541 
z
" transform="scale(0.015625)"/>
       </defs>
       <use xlink:href="#ArialMT-30"/>
       <use xlink:href="#ArialMT-2e" x="55.615234"/>
       <use xlink:href="#ArialMT-32" x="83.398438"/>
      </g>
     </g>
    </g>
    <g id="xtick_3">
     <g id="line2d_3">
      <g>
       <use xlink:href="#m7cb490dab1" x="203.694545" y="307.584" style="stroke: #000000; stroke-width: 0.8"/>
      </g>
     </g>
     <g id="text_3">
      <!-- 0.4 -->
      <g transform="translate(196.744545 321.741812) scale(0.1 -0.1)">
       <defs>
        <path id="ArialMT-34" d="M 2069 0 
L 2069 1097 
L 81 1097 
L 81 1613 
L 2172 4581 
L 2631 4581 
L 2631 1613 
L 3250 1613 
L 3250 1097 
L 2631 1097 
L 2631 0 
L 2069 0 
z
M 2069 1613 
L 2069 3678 
L 634 1613 
L 2069 1613 
z
" transform="scale(0.015625)"/>
       </defs>
       <use xlink:href="#ArialMT-30"/>
       <use xlink:href="#ArialMT-2e" x="55.615234"/>
       <use xlink:href="#ArialMT-34" x="83.398438"/>
      </g>
     </g>
    </g>
    <g id="xtick_4">
     <g id="line2d_4">
      <g>
       <use xlink:href="#m7cb490dab1" x="268.625455" y="307.584" style="stroke: #000000; stroke-width: 0.8"/>
      </g>
     </g>
     <g id="text_4">
      <!-- 0.6 -->
      <g transform="translate(261.675455 321.741812) scale(0.1 -0.1)">
       <defs>
        <path id="ArialMT-36" d="M 3184 3459 
L 2625 3416 
Q 2550 3747 2413 3897 
Q 2184 4138 1850 4138 
Q 1581 4138 1378 3988 
Q 1113 3794 959 3422 
Q 806 3050 800 2363 
Q 1003 2672 1297 2822 
Q 1591 2972 1913 2972 
Q 2475 2972 2870 2558 
Q 3266 2144 3266 1488 
Q 3266 1056 3080 686 
Q 2894 316 2569 119 
Q 2244 -78 1831 -78 
Q 1128 -78 684 439 
Q 241 956 241 2144 
Q 241 3472 731 4075 
Q 1159 4600 1884 4600 
Q 2425 4600 2770 4297 
Q 3116 3994 3184 3459 
z
M 888 1484 
Q 888 1194 1011 928 
Q 1134 663 1356 523 
Q 1578 384 1822 384 
Q 2178 384 2434 671 
Q 2691 959 2691 1453 
Q 2691 1928 2437 2201 
Q 2184 2475 1800 2475 
Q 1419 2475 1153 2201 
Q 888 1928 888 1484 
z
" transform="scale(0.015625)"/>
       </defs>
       <use xlink:href="#ArialMT-30"/>
       <use xlink:href="#ArialMT-2e" x="55.615234"/>
       <use xlink:href="#ArialMT-36" x="83.398438"/>
      </g>
     </g>
    </g>
    <g id="xtick_5">
     <g id="line2d_5">
      <g>
       <use xlink:href="#m7cb490dab1" x="333.556364" y="307.584" style="stroke: #000000; stroke-width: 0.8"/>
      </g>
     </g>
     <g id="text_5">
      <!-- 0.8 -->
      <g transform="translate(326.606364 321.741812) scale(0.1 -0.1)">
       <defs>
        <path id="ArialMT-38" d="M 1131 2484 
Q 781 2613 612 2850 
Q 444 3088 444 3419 
Q 444 3919 803 4259 
Q 1163 4600 1759 4600 
Q 2359 4600 2725 4251 
Q 3091 3903 3091 3403 
Q 3091 3084 2923 2848 
Q 2756 2613 2416 2484 
Q 2838 2347 3058 2040 
Q 3278 1734 3278 1309 
Q 3278 722 2862 322 
Q 2447 -78 1769 -78 
Q 1091 -78 675 323 
Q 259 725 259 1325 
Q 259 1772 486 2073 
Q 713 2375 1131 2484 
z
M 1019 3438 
Q 1019 3113 1228 2906 
Q 1438 2700 1772 2700 
Q 2097 2700 2305 2904 
Q 2513 3109 2513 3406 
Q 2513 3716 2298 3927 
Q 2084 4138 1766 4138 
Q 1444 4138 1231 3931 
Q 1019 3725 1019 3438 
z
M 838 1322 
Q 838 1081 952 856 
Q 1066 631 1291 507 
Q 1516 384 1775 384 
Q 2178 384 2440 643 
Q 2703 903 2703 1303 
Q 2703 1709 2433 1975 
Q 2163 2241 1756 2241 
Q 1359 2241 1098 1978 
Q 838 1716 838 1322 
z
" transform="scale(0.015625)"/>
       </defs>
       <use xlink:href="#ArialMT-30"/>
       <use xlink:href="#ArialMT-2e" x="55.615234"/>
       <use xlink:href="#ArialMT-38" x="83.398438"/>
      </g>
     </g>
    </g>
    <g id="xtick_6">
     <g id="line2d_6">
      <g>
       <use xlink:href="#m7cb490dab1" x="398.487273" y="307.584" style="stroke: #000000; stroke-width: 0.8"/>
      </g>
     </g>
     <g id="text_6">
      <!-- 1.0 -->
      <g transform="translate(391.537273 321.741812) scale(0.1 -0.1)">
       <defs>
        <path id="ArialMT-31" d="M 2384 0 
L 1822 0 
L 1822 3584 
Q 1619 3391 1289 3197 
Q 959 3003 697 2906 
L 697 3450 
Q 1169 3672 1522 3987 
Q 1875 4303 2022 4600 
L 2384 4600 
L 2384 0 
z
" transform="scale(0.015625)"/>
       </defs>
       <use xlink:href="#ArialMT-31"/>
       <use xlink:href="#ArialMT-2e" x="55.615234"/>
       <use xlink:href="#ArialMT-30" x="83.398438"/>
      </g>
     </g>
    </g>
    <g id="text_7">
     <!-- $t$ -->
     <g transform="translate(234.16 334.887125) scale(0.1 -0.1)">
      <defs>
       <path id="DejaVuSans-Oblique-74" d="M 2706 3500 
L 2619 3053 
L 1472 3053 
L 1100 1153 
Q 1081 1047 1072 975 
Q 1063 903 1063 863 
Q 1063 663 1183 572 
Q 1303 481 1569 481 
L 2150 481 
L 2053 0 
L 1503 0 
Q 991 0 739 200 
Q 488 400 488 806 
Q 488 878 497 964 
Q 506 1050 525 1153 
L 897 3053 
L 409 3053 
L 500 3500 
L 978 3500 
L 1172 4494 
L 1747 4494 
L 1556 3500 
L 2706 3500 
z
" transform="scale(0.015625)"/>
      </defs>
      <use xlink:href="#DejaVuSans-Oblique-74" transform="translate(0 0.78125)"/>
     </g>
    </g>
   </g>
   <g id="matplotlib.axis_2">
    <g id="ytick_1">
     <g id="line2d_7">
      <defs>
       <path id="m4d3bae3131" d="M 0 0 
L -3.5 0 
" style="stroke: #000000; stroke-width: 0.8"/>
      </defs>
      <g>
       <use xlink:href="#m4d3bae3131" x="57.6" y="295.487773" style="stroke: #000000; stroke-width: 0.8"/>
      </g>
     </g>
     <g id="text_8">
      <!-- −1.00 -->
      <g transform="translate(25.298437 299.066679) scale(0.1 -0.1)">
       <defs>
        <path id="ArialMT-2212" d="M 3381 1997 
L 356 1997 
L 356 2522 
L 3381 2522 
L 3381 1997 
z
" transform="scale(0.015625)"/>
       </defs>
       <use xlink:href="#ArialMT-2212"/>
       <use xlink:href="#ArialMT-31" x="58.398438"/>
       <use xlink:href="#ArialMT-2e" x="114.013672"/>
       <use xlink:href="#ArialMT-30" x="141.796875"/>
       <use xlink:href="#ArialMT-30" x="197.412109"/>
      </g>
     </g>
    </g>
    <g id="ytick_2">
     <g id="line2d_8">
      <g>
       <use xlink:href="#m4d3bae3131" x="57.6" y="265.247801" style="stroke: #000000; stroke-width: 0.8"/>
      </g>
     </g>
     <g id="text_9">
      <!-- −0.75 -->
      <g transform="translate(25.298437 268.826708) scale(0.1 -0.1)">
       <defs>
        <path id="ArialMT-37" d="M 303 3981 
L 303 4522 
L 3269 4522 
L 3269 4084 
Q 2831 3619 2401 2847 
Q 1972 2075 1738 1259 
Q 1569 684 1522 0 
L 944 0 
Q 953 541 1156 1306 
Q 1359 2072 1739 2783 
Q 2119 3494 2547 3981 
L 303 3981 
z
" transform="scale(0.015625)"/>
        <path id="ArialMT-35" d="M 266 1200 
L 856 1250 
Q 922 819 1161 601 
Q 1400 384 1738 384 
Q 2144 384 2425 690 
Q 2706 997 2706 1503 
Q 2706 1984 2436 2262 
Q 2166 2541 1728 2541 
Q 1456 2541 1237 2417 
Q 1019 2294 894 2097 
L 366 2166 
L 809 4519 
L 3088 4519 
L 3088 3981 
L 1259 3981 
L 1013 2750 
Q 1425 3038 1878 3038 
Q 2478 3038 2890 2622 
Q 3303 2206 3303 1553 
Q 3303 931 2941 478 
Q 2500 -78 1738 -78 
Q 1113 -78 717 272 
Q 322 622 266 1200 
z
" transform="scale(0.015625)"/>
       </defs>
       <use xlink:href="#ArialMT-2212"/>
       <use xlink:href="#ArialMT-30" x="58.398438"/>
       <use xlink:href="#ArialMT-2e" x="114.013672"/>
       <use xlink:href="#ArialMT-37" x="141.796875"/>
       <use xlink:href="#ArialMT-35" x="197.412109"/>
      </g>
     </g>
    </g>
    <g id="ytick_3">
     <g id="line2d_9">
      <g>
       <use xlink:href="#m4d3bae3131" x="57.6" y="235.00783" style="stroke: #000000; stroke-width: 0.8"/>
      </g>
     </g>
     <g id="text_10">
      <!-- −0.50 -->
      <g transform="translate(25.298437 238.586736) scale(0.1 -0.1)">
       <use xlink:href="#ArialMT-2212"/>
       <use xlink:href="#ArialMT-30" x="58.398438"/>
       <use xlink:href="#ArialMT-2e" x="114.013672"/>
       <use xlink:href="#ArialMT-35" x="141.796875"/>
       <use xlink:href="#ArialMT-30" x="197.412109"/>
      </g>
     </g>
    </g>
    <g id="ytick_4">
     <g id="line2d_10">
      <g>
       <use xlink:href="#m4d3bae3131" x="57.6" y="204.767858" style="stroke: #000000; stroke-width: 0.8"/>
      </g>
     </g>
     <g id="text_11">
      <!-- −0.25 -->
      <g transform="translate(25.298437 208.346764) scale(0.1 -0.1)">
       <use xlink:href="#ArialMT-2212"/>
       <use xlink:href="#ArialMT-30" x="58.398438"/>
       <use xlink:href="#ArialMT-2e" x="114.013672"/>
       <use xlink:href="#ArialMT-32" x="141.796875"/>
       <use xlink:href="#ArialMT-35" x="197.412109"/>
      </g>
     </g>
    </g>
    <g id="ytick_5">
     <g id="line2d_11">
      <g>
       <use xlink:href="#m4d3bae3131" x="57.6" y="174.527886" style="stroke: #000000; stroke-width: 0.8"/>
      </g>
     </g>
     <g id="text_12">
      <!-- 0.00 -->
      <g transform="translate(31.139063 178.106793) scale(0.1 -0.1)">
       <use xlink:href="#ArialMT-30"/>
       <use xlink:href="#ArialMT-2e" x="55.615234"/>
       <use xlink:href="#ArialMT-30" x="83.398438"/>
       <use xlink:href="#ArialMT-30" x="139.013672"/>
      </g>
     </g>
    </g>
    <g id="ytick_6">
     <g id="line2d_12">
      <g>
       <use xlink:href="#m4d3bae3131" x="57.6" y="144.287915" style="stroke: #000000; stroke-width: 0.8"/>
      </g>
     </g>
     <g id="text_13">
      <!-- 0.25 -->
      <g transform="translate(31.139063 147.866821) scale(0.1 -0.1)">
       <use xlink:href="#ArialMT-30"/>
       <use xlink:href="#ArialMT-2e" x="55.615234"/>
       <use xlink:href="#ArialMT-32" x="83.398438"/>
       <use xlink:href="#ArialMT-35" x="139.013672"/>
      </g>
     </g>
    </g>
    <g id="ytick_7">
     <g id="line2d_13">
      <g>
       <use xlink:href="#m4d3bae3131" x="57.6" y="114.047943" style="stroke: #000000; stroke-width: 0.8"/>
      </g>
     </g>
     <g id="text_14">
      <!-- 0.50 -->
      <g transform="translate(31.139063 117.626849) scale(0.1 -0.1)">
       <use xlink:href="#ArialMT-30"/>
       <use xlink:href="#ArialMT-2e" x="55.615234"/>
       <use xlink:href="#ArialMT-35" x="83.398438"/>
       <use xlink:href="#ArialMT-30" x="139.013672"/>
      </g>
     </g>
    </g>
    <g id="ytick_8">
     <g id="line2d_14">
      <g>
       <use xlink:href="#m4d3bae3131" x="57.6" y="83.807972" style="stroke: #000000; stroke-width: 0.8"/>
      </g>
     </g>
     <g id="text_15">
      <!-- 0.75 -->
      <g transform="translate(31.139063 87.386878) scale(0.1 -0.1)">
       <use xlink:href="#ArialMT-30"/>
       <use xlink:href="#ArialMT-2e" x="55.615234"/>
       <use xlink:href="#ArialMT-37" x="83.398438"/>
       <use xlink:href="#ArialMT-35" x="139.013672"/>
      </g>
     </g>
    </g>
    <g id="ytick_9">
     <g id="line2d_15">
      <g>
       <use xlink:href="#m4d3bae3131" x="57.6" y="53.568" style="stroke: #000000; stroke-width: 0.8"/>
      </g>
     </g>
     <g id="text_16">
      <!-- 1.00 -->
      <g transform="translate(31.139063 57.146906) scale(0.1 -0.1)">
       <use xlink:href="#ArialMT-31"/>
       <use xlink:href="#ArialMT-2e" x="55.615234"/>
       <use xlink:href="#ArialMT-30" x="83.398438"/>
       <use xlink:href="#ArialMT-30" x="139.013672"/>
      </g>
     </g>
    </g>
    <g id="text_17">
     <!-- $y$ -->
     <g transform="translate(19.198437 177.528) rotate(-90) scale(0.1 -0.1)">
      <defs>
       <path id="DejaVuSans-Oblique-79" d="M 1588 -325 
Q 1188 -997 936 -1164 
Q 684 -1331 294 -1331 
L -159 -1331 
L -63 -850 
L 269 -850 
Q 509 -850 678 -719 
Q 847 -588 1056 -206 
L 1234 128 
L 459 3500 
L 1069 3500 
L 1650 819 
L 3256 3500 
L 3859 3500 
L 1588 -325 
z
" transform="scale(0.015625)"/>
      </defs>
      <use xlink:href="#DejaVuSans-Oblique-79" transform="translate(0 0.3125)"/>
     </g>
    </g>
   </g>
   <g id="line2d_16">
    <path d="M 73.832727 53.568 
L 77.112066 53.641551 
L 80.391405 53.860209 
L 83.670744 54.220982 
L 86.950083 54.720879 
L 90.229421 55.356907 
L 93.50876 56.126074 
L 96.788099 57.025389 
L 100.067438 58.05186 
L 103.346777 59.202495 
L 106.626116 60.474302 
L 109.905455 61.864289 
L 113.184793 63.369463 
L 116.464132 64.986834 
L 119.743471 66.71341 
L 123.02281 68.546198 
L 126.302149 70.482206 
L 129.581488 72.518443 
L 132.860826 74.651917 
L 136.140165 76.879636 
L 139.419504 79.198607 
L 142.698843 81.60584 
L 145.978182 84.098342 
L 149.257521 86.673121 
L 152.53686 89.327185 
L 155.816198 92.057543 
L 159.095537 94.861202 
L 162.374876 97.735171 
L 165.654215 100.676458 
L 168.933554 103.68207 
L 172.212893 106.749017 
L 175.492231 109.874306 
L 178.77157 113.054944 
L 182.050909 116.287941 
L 185.330248 119.570304 
L 188.609587 122.899042 
L 191.888926 126.271162 
L 195.168264 129.683673 
L 198.447603 133.133583 
L 201.726942 136.6179 
L 205.006281 140.133631 
L 208.28562 143.677785 
L 211.564959 147.247371 
L 214.844298 150.839396 
L 218.123636 154.450868 
L 221.402975 158.078796 
L 224.682314 161.720187 
L 227.961653 165.37205 
L 231.240992 169.031393 
L 234.520331 172.695223 
L 237.799669 176.36055 
L 241.079008 180.02438 
L 244.358347 183.683723 
L 247.637686 187.335586 
L 250.917025 190.976977 
L 254.196364 194.604905 
L 257.475702 198.216377 
L 260.755041 201.808402 
L 264.03438 205.377987 
L 267.313719 208.922142 
L 270.593058 212.437873 
L 273.872397 215.92219 
L 277.151736 219.3721 
L 280.431074 222.784611 
L 283.710413 226.156731 
L 286.989752 229.485469 
L 290.269091 232.767832 
L 293.54843 236.000829 
L 296.827769 239.181467 
L 300.107107 242.306756 
L 303.386446 245.373703 
L 306.665785 248.379315 
L 309.945124 251.320602 
L 313.224463 254.194571 
L 316.503802 256.99823 
L 319.78314 259.728588 
L 323.062479 262.382652 
L 326.341818 264.957431 
L 329.621157 267.449933 
L 332.900496 269.857166 
L 336.179835 272.176137 
L 339.459174 274.403856 
L 342.738512 276.53733 
L 346.017851 278.573567 
L 349.29719 280.509575 
L 352.576529 282.342363 
L 355.855868 284.068939 
L 359.135207 285.68631 
L 362.414545 287.191484 
L 365.693884 288.581471 
L 368.973223 289.853278 
L 372.252562 291.003913 
L 375.531901 292.030384 
L 378.81124 292.929699 
L 382.090579 293.698866 
L 385.369917 294.334894 
L 388.649256 294.834791 
L 391.928595 295.195564 
L 395.207934 295.414222 
L 398.487273 295.487773 
" clip-path="url(#pa4bab26bb0)" style="fill: none; stroke: #1f77b4; stroke-width: 2; stroke-linecap: square"/>
   </g>
   <g id="line2d_17">
    <path d="M 73.832727 53.568 
L 77.112066 53.666064 
L 80.391405 53.954474 
L 83.670744 54.424738 
L 86.950083 55.068571 
L 90.229421 55.87794 
L 93.50876 56.845065 
L 96.788099 57.962419 
L 100.067438 59.22273 
L 103.346777 60.618979 
L 106.626116 62.144398 
L 109.905455 63.792475 
L 113.184793 65.556952 
L 116.464132 67.431871 
L 119.743471 69.411412 
L 123.02281 71.489914 
L 126.302149 73.661913 
L 129.581488 75.922139 
L 132.860826 78.265525 
L 136.140165 80.687195 
L 139.419504 83.182475 
L 142.698843 85.746886 
L 145.978182 88.376147 
L 149.257521 91.066173 
L 152.53686 93.813079 
L 155.816198 96.613174 
L 159.095537 99.462966 
L 162.374876 102.35916 
L 165.654215 105.298659 
L 168.933554 108.278561 
L 172.212893 111.296164 
L 175.492231 114.348961 
L 178.77157 117.434644 
L 182.050909 120.551101 
L 185.330248 123.696297 
L 188.609587 126.866457 
L 191.888926 130.059122 
L 195.168264 133.272556 
L 198.447603 136.505048 
L 201.726942 139.754907 
L 205.006281 143.020464 
L 208.28562 146.300074 
L 211.564959 149.59211 
L 214.844298 152.894971 
L 218.123636 156.207075 
L 221.402975 159.526862 
L 224.682314 162.852796 
L 227.961653 166.18336 
L 231.240992 169.517062 
L 234.520331 172.852429 
L 237.799669 176.188011 
L 241.079008 179.522381 
L 244.358347 182.854132 
L 247.637686 186.18188 
L 250.917025 189.504263 
L 254.196364 192.819939 
L 257.475702 196.12759 
L 260.755041 199.425919 
L 264.03438 202.712968 
L 267.313719 205.986517 
L 270.593058 209.245255 
L 273.872397 212.487743 
L 277.151736 215.712401 
L 280.431074 218.91751 
L 283.710413 222.101213 
L 286.989752 225.261514 
L 290.269091 228.396279 
L 293.54843 231.503233 
L 296.827769 234.579965 
L 300.107107 237.623923 
L 303.386446 240.632418 
L 306.665785 243.60262 
L 309.945124 246.531562 
L 313.224463 249.416138 
L 316.503802 252.253103 
L 319.78314 255.039071 
L 323.062479 257.770522 
L 326.341818 260.443792 
L 329.621157 263.055082 
L 332.900496 265.600268 
L 336.179835 268.074763 
L 339.459174 270.474431 
L 342.738512 272.794937 
L 346.017851 275.031697 
L 349.29719 277.179874 
L 352.576529 279.234384 
L 355.855868 281.189895 
L 359.135207 283.040822 
L 362.414545 284.781332 
L 365.693884 286.405343 
L 368.973223 287.906523 
L 372.252562 289.27829 
L 375.531901 290.513812 
L 378.81124 291.60601 
L 382.090579 292.547551 
L 385.369917 293.330858 
L 388.649256 293.948099 
L 391.928595 294.391197 
L 395.207934 294.651821 
L 398.487273 294.721394 
" clip-path="url(#pa4bab26bb0)" style="fill: none; stroke: #ff7f0e; stroke-width: 2; stroke-linecap: square"/>
   </g>
   <g id="line2d_18">
    <path d="M 73.832727 53.568 
L 77.112066 53.825846 
L 80.391405 54.566088 
L 83.670744 55.740639 
L 86.950083 57.303932 
L 90.229421 59.213104 
L 93.50876 61.428139 
L 96.788099 63.910398 
L 100.067438 66.623465 
L 103.346777 69.533262 
L 106.626116 72.608041 
L 109.905455 75.818387 
L 113.184793 79.13722 
L 116.464132 82.539791 
L 119.743471 86.003684 
L 123.02281 89.508817 
L 126.302149 93.037441 
L 129.581488 96.570818 
L 132.860826 100.091433 
L 136.140165 103.585923 
L 139.419504 107.042131 
L 142.698843 110.449099 
L 145.978182 113.797071 
L 149.257521 117.077494 
L 152.53686 120.283015 
L 155.816198 123.407484 
L 159.095537 126.445953 
L 162.374876 129.394675 
L 165.654215 132.251105 
L 168.933554 135.013555 
L 172.212893 137.67986 
L 175.492231 140.250573 
L 178.77157 142.727068 
L 182.050909 145.111136 
L 185.330248 147.404993 
L 188.609587 149.611278 
L 191.888926 151.733049 
L 195.168264 153.773788 
L 198.447603 155.737399 
L 201.726942 157.628208 
L 205.006281 159.450963 
L 208.28562 161.210688 
L 211.564959 162.912981 
L 214.844298 164.564596 
L 218.123636 166.172331 
L 221.402975 167.742971 
L 224.682314 169.283287 
L 227.961653 170.800032 
L 231.240992 172.299946 
L 234.520331 173.789755 
L 237.799669 175.276166 
L 241.079008 176.765876 
L 244.358347 178.265564 
L 247.637686 179.781892 
L 250.917025 181.321534 
L 254.196364 182.89174 
L 257.475702 184.499657 
L 260.755041 186.152046 
L 264.03438 187.855286 
L 267.313719 189.615369 
L 270.593058 191.437904 
L 273.872397 193.328115 
L 277.151736 195.29084 
L 280.431074 197.330537 
L 283.710413 199.451273 
L 286.989752 201.656737 
L 290.269091 203.950229 
L 293.54843 206.333912 
L 296.827769 208.809913 
L 300.107107 211.380424 
L 303.386446 214.046589 
L 306.665785 216.808509 
L 309.945124 219.665237 
L 313.224463 222.614782 
L 316.503802 225.654104 
L 319.78314 228.779122 
L 323.062479 231.984706 
L 326.341818 235.264682 
L 329.621157 238.611828 
L 332.900496 242.01788 
L 336.179835 245.473524 
L 339.459174 248.968404 
L 342.738512 252.488606 
L 346.017851 256.019156 
L 349.29719 259.545494 
L 352.576529 263.050924 
L 355.855868 266.516609 
L 359.135207 269.92158 
L 362.414545 273.242726 
L 365.693884 276.454802 
L 368.973223 279.530424 
L 372.252562 282.440072 
L 375.531901 285.152088 
L 378.81124 287.632678 
L 382.090579 289.845909 
L 385.369917 291.753713 
L 388.649256 293.315884 
L 391.928595 294.490016 
L 395.207934 295.230178 
L 398.487273 295.488 
" clip-path="url(#pa4bab26bb0)" style="fill: none; stroke: #2ca02c; stroke-width: 2; stroke-linecap: square"/>
   </g>
   <g id="line2d_19">
    <path d="M 73.832727 53.568 
L 77.112066 53.985569 
L 80.391405 55.171303 
L 83.670744 57.029544 
L 86.950083 59.471965 
L 90.229421 62.41453 
L 93.50876 65.778629 
L 96.788099 69.491706 
L 100.067438 73.487262 
L 103.346777 77.704856 
L 106.626116 82.090105 
L 109.905455 86.594679 
L 113.184793 91.175623 
L 116.464132 95.788524 
L 119.743471 100.3969 
L 123.02281 104.969243 
L 126.302149 109.477238 
L 129.581488 113.895762 
L 132.860826 118.202879 
L 136.140165 122.37985 
L 139.419504 126.411123 
L 142.698843 130.284339 
L 145.978182 133.989878 
L 149.257521 137.517706 
L 152.53686 140.863084 
L 155.816198 144.023373 
L 159.095537 146.996997 
L 162.374876 149.783442 
L 165.654215 152.38326 
L 168.933554 154.798066 
L 172.212893 157.030537 
L 175.492231 159.084416 
L 178.77157 160.964442 
L 182.050909 162.67743 
L 185.330248 164.231244 
L 188.609587 165.633904 
L 191.888926 166.893582 
L 195.168264 168.018604 
L 198.447603 169.017449 
L 201.726942 169.898751 
L 205.006281 170.671297 
L 208.28562 171.344142 
L 211.564959 171.927589 
L 214.844298 172.432526 
L 218.123636 172.869724 
L 221.402975 173.249823 
L 224.682314 173.583341 
L 227.961653 173.880664 
L 231.240992 174.152056 
L 234.520331 174.407649 
L 237.799669 174.657452 
L 241.079008 174.911418 
L 244.358347 175.180748 
L 247.637686 175.476511 
L 250.917025 175.80936 
L 254.196364 176.189816 
L 257.475702 176.628266 
L 260.755041 177.134967 
L 264.03438 177.720042 
L 267.313719 178.393479 
L 270.593058 179.165139 
L 273.872397 180.044684 
L 277.151736 181.041818 
L 280.431074 182.166035 
L 283.710413 183.426237 
L 286.989752 184.830734 
L 290.269091 186.387242 
L 293.54843 188.102882 
L 296.827769 189.984181 
L 300.107107 192.037073 
L 303.386446 194.266897 
L 306.665785 196.678399 
L 309.945124 199.27573 
L 313.224463 202.060751 
L 316.503802 205.033855 
L 319.78314 208.195747 
L 323.062479 211.544786 
L 326.341818 215.076968 
L 329.621157 218.785921 
L 332.900496 222.662914 
L 336.179835 226.696848 
L 339.459174 230.874264 
L 342.738512 235.179335 
L 346.017851 239.593874 
L 349.29719 244.097327 
L 352.576529 248.666778 
L 355.855868 253.275859 
L 359.135207 257.886716 
L 362.414545 262.463795 
L 365.693884 266.968214 
L 368.973223 271.355535 
L 372.252562 275.575759 
L 375.531901 279.57333 
L 378.81124 283.287131 
L 382.090579 286.650489 
L 385.369917 289.59117 
L 388.649256 292.031384 
L 391.928595 293.88778 
L 395.207934 295.071449 
L 398.487273 295.487924 
" clip-path="url(#pa4bab26bb0)" style="fill: none; stroke: #d62728; stroke-width: 2; stroke-linecap: square"/>
   </g>
   <g id="patch_3">
    <path d="M 57.6 307.584 
L 57.6 41.472 
" style="fill: none; stroke: #000000; stroke-width: 0.8; stroke-linejoin: miter; stroke-linecap: square"/>
   </g>
   <g id="patch_4">
    <path d="M 414.72 307.584 
L 414.72 41.472 
" style="fill: none; stroke: #000000; stroke-width: 0.8; stroke-linejoin: miter; stroke-linecap: square"/>
   </g>
   <g id="patch_5">
    <path d="M 57.6 307.584 
L 414.72 307.584 
" style="fill: none; stroke: #000000; stroke-width: 0.8; stroke-linejoin: miter; stroke-linecap: square"/>
   </g>
   <g id="patch_6">
    <path d="M 57.6 41.472 
L 414.72 41.472 
" style="fill: none; stroke: #000000; stroke-width: 0.8; stroke-linejoin: miter; stroke-linecap: square"/>
   </g>
   <g id="legend_1">
    <g id="patch_7">
     <path d="M 341.873125 106.172 
L 407.72 106.172 
Q 409.72 106.172 409.72 104.172 
L 409.72 48.472 
Q 409.72 46.472 407.72 46.472 
L 341.873125 46.472 
Q 339.873125 46.472 339.873125 48.472 
L 339.873125 104.172 
Q 339.873125 106.172 341.873125 106.172 
L 341.873125 106.172 
z
" style="fill: none; opacity: 0.8; stroke: #cccccc; stroke-linejoin: miter"/>
    </g>
    <g id="line2d_20">
     <path d="M 343.873125 54.1595 
L 353.873125 54.1595 
L 363.873125 54.1595 
" style="fill: none; stroke: #1f77b4; stroke-width: 2; stroke-linecap: square"/>
    </g>
    <g id="text_18">
     <!-- μ=0 -->
     <g transform="translate(371.873125 57.6595) scale(0.1 -0.1)">
      <defs>
       <path id="ArialMT-3bc" d="M 3181 3319 
L 3181 0 
L 2678 0 
L 2678 394 
Q 2516 144 2356 50 
Q 2138 -78 1847 -78 
Q 1588 -78 1388 25 
Q 1238 103 1056 334 
L 1056 -1272 
L 500 -1272 
L 500 3319 
L 1056 3319 
L 1056 1913 
Q 1056 1147 1137 920 
Q 1219 694 1401 562 
Q 1584 431 1822 431 
Q 2072 431 2269 568 
Q 2466 706 2547 923 
Q 2628 1141 2628 1903 
L 2628 3319 
L 3181 3319 
z
" transform="scale(0.015625)"/>
       <path id="ArialMT-3d" d="M 3381 2694 
L 356 2694 
L 356 3219 
L 3381 3219 
L 3381 2694 
z
M 3381 1303 
L 356 1303 
L 356 1828 
L 3381 1828 
L 3381 1303 
z
" transform="scale(0.015625)"/>
      </defs>
      <use xlink:href="#ArialMT-3bc"/>
      <use xlink:href="#ArialMT-3d" x="57.617188"/>
      <use xlink:href="#ArialMT-30" x="116.015625"/>
     </g>
    </g>
    <g id="line2d_21">
     <path d="M 343.873125 68.3345 
L 353.873125 68.3345 
L 363.873125 68.3345 
" style="fill: none; stroke: #ff7f0e; stroke-width: 2; stroke-linecap: square"/>
    </g>
    <g id="text_19">
     <!-- μ=100 -->
     <g transform="translate(371.873125 71.8345) scale(0.1 -0.1)">
      <use xlink:href="#ArialMT-3bc"/>
      <use xlink:href="#ArialMT-3d" x="57.617188"/>
      <use xlink:href="#ArialMT-31" x="116.015625"/>
      <use xlink:href="#ArialMT-30" x="171.630859"/>
      <use xlink:href="#ArialMT-30" x="227.246094"/>
     </g>
    </g>
    <g id="line2d_22">
     <path d="M 343.873125 82.5095 
L 353.873125 82.5095 
L 363.873125 82.5095 
" style="fill: none; stroke: #2ca02c; stroke-width: 2; stroke-linecap: square"/>
    </g>
    <g id="text_20">
     <!-- μ=1000 -->
     <g transform="translate(371.873125 86.0095) scale(0.1 -0.1)">
      <use xlink:href="#ArialMT-3bc"/>
      <use xlink:href="#ArialMT-3d" x="57.617188"/>
      <use xlink:href="#ArialMT-31" x="116.015625"/>
      <use xlink:href="#ArialMT-30" x="171.630859"/>
      <use xlink:href="#ArialMT-30" x="227.246094"/>
      <use xlink:href="#ArialMT-30" x="282.861328"/>
     </g>
    </g>
    <g id="line2d_23">
     <path d="M 343.873125 96.6845 
L 353.873125 96.6845 
L 363.873125 96.6845 
" style="fill: none; stroke: #d62728; stroke-width: 2; stroke-linecap: square"/>
    </g>
    <g id="text_21">
     <!-- μ=2500 -->
     <g transform="translate(371.873125 100.1845) scale(0.1 -0.1)">
      <use xlink:href="#ArialMT-3bc"/>
      <use xlink:href="#ArialMT-3d" x="57.617188"/>
      <use xlink:href="#ArialMT-32" x="116.015625"/>
      <use xlink:href="#ArialMT-35" x="171.630859"/>
      <use xlink:href="#ArialMT-30" x="227.246094"/>
      <use xlink:href="#ArialMT-30" x="282.861328"/>
     </g>
    </g>
   </g>
  </g>
 </g>
 <defs>
  <clipPath id="pa4bab26bb0">
   <rect x="57.6" y="41.472" width="357.12" height="266.112"/>
  </clipPath>
 </defs>
</svg>
